<?xml version="1.0" standalone="no"?>
<!DOCTYPE svg PUBLIC "-//W3C//DTD SVG 1.1//EN" "http://www.w3.org/Graphics/SVG/1.1/DTD/svg11.dtd" >
<!--
2013-9-30: Created.
-->
<svg>
<metadata>
Created by iconfont
</metadata>
<defs>

<font id="io" horiz-adv-x="1024" >
  <font-face
    font-family="io"
    font-weight="500"
    font-stretch="normal"
    units-per-em="1024"
    ascent="896"
    descent="-128"
  />
    <missing-glyph />
    
    <glyph glyph-name="shipin1" unicode="&#58966;" d="M814.545455 709.818182h-230.4l121.018181 86.109091c11.636364 6.981818 13.963636 20.945455 4.654546 32.581818-6.981818 11.636364-20.945455 13.963636-32.581818 4.654545l-165.236364-116.363636-165.236364 116.363636c-11.636364 6.981818-25.6 4.654545-32.581818-4.654545-6.981818-11.636364-4.654545-25.6 4.654546-32.581818L439.854545 709.818182H209.454545c-76.8 0-139.636364-62.836364-139.636363-139.636364v-477.090909c0-76.8 62.836364-139.636364 139.636363-139.636364h605.09091c76.8 0 139.636364 62.836364 139.636363 139.636364V570.181818c0 76.8-62.836364 139.636364-139.636363 139.636364z m93.090909-616.727273c0-51.2-41.890909-93.090909-93.090909-93.090909H209.454545c-51.2 0-93.090909 41.890909-93.090909 93.090909V570.181818c0 51.2 41.890909 93.090909 93.090909 93.090909h605.09091c51.2 0 93.090909-41.890909 93.090909-93.090909v-477.090909zM686.545455 372.36363600000004l-251.345455 144.290909c-6.981818 4.654545-16.290909 6.981818-23.272727 6.981819-23.272727 0-46.545455-18.618182-46.545455-46.545455v-290.909091c0-27.927273 23.272727-46.545455 46.545455-46.545454 6.981818 0 16.290909 2.327273 23.272727 6.981818L686.545455 290.909091c30.254545 18.618182 30.254545 62.836364 0 81.454545z m-274.618182-186.181818V477.090909l251.345454-144.290909-251.345454-146.618182z"  horiz-adv-x="1024" />

    
    <glyph glyph-name="zan" unicode="&#59009;" d="M759.1936 69.0176c-20.0704-21.9136-43.52-32.5632-71.4752-32.5632L420.2496 36.4544c-32.768 0-59.392 27.8528-59.392 62.0544L360.8576 427.7248c28.2624 29.9008 103.936 118.4768 147.0464 250.88 6.7584 20.7872 21.8112 55.5008 47.3088 52.8384 19.8656-1.9456 40.6528-24.4736 43.7248-47.104 1.8432-16.896-14.4384-115.5072-40.5504-167.6288L535.552 471.1424l241.152 0c32.768 0 59.392-27.8528 59.4944-63.2832C838.8608 339.7632 829.952 146.0224 759.1936 69.0176zM296.448 98.6112c0-14.336-23.7568-31.0272-54.4768-31.0272-30.72 0-54.4768 16.6912-54.4768 31.0272L187.4944 409.088c0 14.336 23.7568 31.0272 54.4768 31.0272 30.72 0 54.4768-16.6912 54.4768-31.0272L296.448 98.6112zM895.6928 409.088c0 68.5056-53.3504 124.2112-118.8864 124.2112L629.1456 533.2992c19.6608 59.6992 31.9488 134.4512 28.5696 159.6416-7.0656 51.6096-49.664 95.6416-96.9728 100.2496-22.6304 2.1504-79.1552-2.56-109.1584-94.72-37.9904-116.736-103.8336-195.8912-128.9216-223.1296-20.48 16.6912-48.8448 26.8288-80.6912 26.8288-63.8976 0-113.9712-40.96-113.9712-93.184l0-310.4768c0-52.224 50.0736-93.184 113.9712-93.184 30.9248 0 58.4704 9.728 78.848 25.6 21.1968-33.9968 57.7536-56.6272 99.4304-56.6272l267.4688 0c44.3392 0 82.8416 17.408 114.3808 51.6096C904.704 137.6256 896.1024 399.2576 895.6928 409.088z"  horiz-adv-x="1024" />

    
    <glyph glyph-name="tv" unicode="&#58902;" d="M726.573973 895.792024c-12.469939-0.957462-21.931327-5.823605-29.209757-14.596995L495.779762 648.940258l-132.17419 162.133578c-7.305664 8.779124-16.739818 13.645267-29.219791 14.591263-10.878947 1.019095-20.632733-2.111289-29.949355-9.484321-8.218693-7.262665-14.321797-15.117293-15.335159-26.287205-1.053495-10.32425 1.685592-20.436368 9.495788-29.221224L426.409633 602.20092c0.464398 0.083133 0.963195 0 1.43906 0l67.931069 0 67.915303 0c0.531764 0 0.273765 0.083133 0.739596 0l197.910837 228.581154c7.848895 8.802057 10.565049 18.891242 9.511554 29.215491-1.029128 11.192846-6.394069 19.008774-14.607029 26.304405C747.910469 893.659234 737.45722 896.799653 726.573973 895.792024L726.573973 895.792024zM726.573973 895.792024M126.619392 561.61915C77.489264 560.505455 45.485953 524.269532 45.485953 480.497177l0-527.375234c0-70.647223 34.141834-81.121972 81.133439-81.121972l770.77125 0c47.020271 0 81.123405 33.974134 81.123405 81.121972L978.514047 480.497177c0 47.147838-34.103134 81.121972-81.123405 81.121972L126.619392 561.61915 126.619392 561.61915zM207.754264 439.926875l446.228896 0c32.13231 0 40.576036-9.859852 40.576036-40.570302l0-365.089724c-2.833686-24.898313-11.607077-40.557403-40.576036-40.557403L207.754264-6.290554c-32.165277 0-40.570302 9.831186-40.570302 40.557403L167.18396 399.362306C167.18396 430.067023 175.588986 439.926875 207.754264 439.926875L207.754264 439.926875zM836.531604 439.926875c16.779952-0.0172 30.406586-5.683139 41.84023-17.105316 12.507205-12.541606 19.014508-26.963735 19.014508-43.732221 0-16.853051-6.511602-31.298114-19.014508-43.117323-10.671114-11.460878-23.884951-17.026484-39.931039-17.74888l-2.536987 0c-16.779952 0.722397-31.376948 6.288002-43.11159 17.74888-11.736076 11.830676-17.11535 26.264272-17.11535 43.117323 0 16.768485 5.379274 31.190615 17.11535 43.732221C804.890925 434.243736 819.76742 439.926875 836.531604 439.926875L836.531604 439.926875zM836.531604 237.105462c16.818651 0 30.664585-5.352041 42.47806-17.11535 12.127375-12.111608 18.380977-26.947969 18.380977-43.727921 0-16.729785-6.253603-30.754883-18.380977-42.479494-11.813476-12.210508-25.659408-18.386711-42.47806-18.386711-16.831552 0-31.180581 6.176203-43.739387 18.386711-11.466611 11.763309-17.11535 25.749708-17.11535 42.479494 0 16.779952 5.648739 31.600546 17.11535 43.727921C805.356756 231.774921 819.700054 237.105462 836.531604 237.105462L836.531604 237.105462zM836.531604 237.105462"  horiz-adv-x="1024" />

    
    <glyph glyph-name="mac" unicode="&#59017;" d="M960 787.2c35.2 0 64-28.8 64-64v-518.4c0-35.2-28.8-64-64-64H646.4l57.6-115.2c6.4-16 0-35.2-12.8-41.6-3.2-3.2-9.6-3.2-12.8-3.2H348.8c-19.2 0-32 12.8-32 32 0 6.4 0 9.6 3.2 12.8l57.6 115.2H64c-35.2 0-64 28.8-64 64V723.2c0 35.2 28.8 64 64 64h896zM598.4 601.6c-35.2 3.2-67.2-19.2-86.4-19.2-16 0-41.6 19.2-70.4 19.2-35.2 0-70.4-22.4-89.6-54.4-38.4-64-9.6-163.2 25.6-217.6l6.4-9.6c16-22.4 35.2-48 60.8-44.8 28.8 0 38.4 19.2 70.4 19.2 32 0 41.6-19.2 70.4-16 28.8 0 48 25.6 67.2 54.4s28.8 60.8 28.8 60.8h-3.2C665.6 400 624 422.4 624 480c0 54.4 44.8 80 48 83.2-19.2 32-57.6 38.4-73.6 38.4z m0 105.6c-22.4 0-48-16-64-32-12.8-16-25.6-41.6-22.4-67.2 25.6 0 48 12.8 64 32 12.8 16 25.6 41.6 22.4 67.2z"  horiz-adv-x="1024" />

    
    <glyph glyph-name="anzhuo" unicode="&#58957;" d="M141.1 564.8c-35 0-63.3-28.3-63.3-63.2v-264.7c0-34.9 28.4-63.2 63.3-63.2 35 0 63.3 28.3 63.3 63.2V501.6c0 34.9-28.3 63.2-63.3 63.2zM228.9 142.7c0-37.3 30.3-67.5 67.6-67.5h46.1v-140c0-34.9 28.4-63.2 63.3-63.2 35 0 63.3 28.3 63.3 63.2v140h85.5v-140c0-34.9 28.4-63.2 63.3-63.2 35 0 63.3 28.3 63.3 63.2v140h46.1c37.3 0 67.6 30.2 67.6 67.5V552.9H228.9v-410.2zM651.8 802.6L696 883c2.4 4.2 0.8 9.6-3.5 11.9-4.2 2.3-9.6 0.8-11.9-3.5l-44.7-81.2C598.4 826.8 556.4 836.1 512 836.1c-44.4 0-86.4-9.3-123.9-25.8L343.4 891.4c-2.3 4.3-7.7 5.8-11.9 3.5-4.3-2.3-5.9-7.7-3.5-11.9l44.2-80.4c-86.8-44.8-145.5-130-145.5-227.7h570.5c0.1 97.8-58.6 182.9-145.4 227.7zM382.2 678c-13.2 0-23.9 10.7-23.9 23.9s10.7 23.9 23.9 23.9 23.9-10.7 23.9-23.9c-0.1-13.2-10.8-23.9-23.9-23.9z m259.7 0c-13.2 0-23.9 10.7-23.9 23.9s10.7 23.9 23.9 23.9 23.9-10.7 23.9-23.9c-0.1-13.2-10.8-23.9-23.9-23.9zM882.9 564.8c-35 0-63.3-28.3-63.3-63.2v-264.7c0-34.9 28.4-63.2 63.3-63.2 35 0 63.3 28.3 63.3 63.2V501.6c0 34.9-28.3 63.2-63.3 63.2z"  horiz-adv-x="1024" />

    
    <glyph glyph-name="ziyuanheji" unicode="&#60372;" d="M1132.01863 584.899048v82.651428c0 70.986323-56.17686 150.394298-131.35828 150.394298h-378.754163l-15.619539 29.527693C590.673401 877.412276 560.065081 896 526.359594 896H122.219355C54.8131 896 0 839.519558 0 770.084178v-770.875379c0-69.402347 54.8131-125.863914 122.219355-125.863914h951.014439c67.406255 0 122.219355 56.461567 122.219355 125.863914V472.345561c0 41.030783-27.070722 84.457192-63.434519 112.551914z m-131.35828 157.442752c26.119078 0 55.917321-39.849487 55.917321-74.791324v-52.286918c-1.274101 0.051908-2.551349 0.130556-3.823877 0.130556H728.993622L661.872074 742.3418h338.789849z m119.35184-743.133001c0-27.704627-20.995932-50.26094-46.779969-50.26094H122.220928c-25.784037 0-46.779969 22.556313-46.779969 50.26094V770.084178c0 27.742378 20.995932 50.311275 46.779969 50.311275h404.137094c5.525825 0 10.530998-3.048406 13.187735-8.135373l133.420437-252.372744a37.746433 37.746433 0 0 1 33.33584-20.096196H1052.753794c27.036117 0 67.258396-40.352836 67.258396-67.448725v-473.135189z"  horiz-adv-x="1195" />

    
    <glyph glyph-name="xiazai" unicode="&#58899;" d="M46.535 315.05a46.709 46.709 0 0 0 32.91-13.567A46.04 46.04 0 0 0 93.1 268.772v-201.16c0-25.543 20.821-46.25 46.535-46.25h744.732c25.714 0 46.535 20.707 46.535 46.25V268.8c0 16.498 8.875 31.772 23.268 40.05a46.9 46.9 0 0 0 46.563 0c14.393-8.25 23.268-23.524 23.268-40.05v-201.188c0-76.629-62.52-138.723-139.662-138.723H139.662C62.492-71.111 0-9.017 0 67.612V268.8c0 25.543 20.85 46.25 46.535 46.25zM327.111 793.145a46.08 46.08 0 0 0 46.165 45.966H650.61a46.08 46.08 0 0 0 46.279-45.966V526.82h138.667c19.2 0 36.408-11.776 43.235-29.64a45.796 45.796 0 0 0-12.515-50.716L542.635 161.138a46.421 46.421 0 0 0-61.327 0L157.781 446.464a45.796 45.796 0 0 0-12.544 50.688 46.222 46.222 0 0 0 43.179 29.668h138.667V793.145z m92.445-45.966v-266.326a46.08 46.08 0 0 0-46.251-45.966h-63.09l201.757-177.92 201.756 177.92h-63.09a46.08 46.08 0 0 0-46.222 45.966V747.18H419.527z"  horiz-adv-x="1024" />

    
    <glyph glyph-name="APP" unicode="&#59413;" d="M743.52499968 885.45833333H280.47500032C225.90125032 885.45833333 181.25000032 843.59483296 181.25000032 792.42308379V-13.709167040000011C181.25000032-64.92816630000004 225.90125032-106.79166667000004 280.47500032-106.79166667000004h463.04999936c54.57375 0 99.225 41.86350037 99.225 93.03524954V792.3758337C842.74999968 843.59483296 798.09874968 885.45833333 743.52499968 885.45833333zM379.70000032 838.96433361h264.59999936v-31.04325056H379.70000032V838.96433361zM512-44.75241661999996a67.23674954 67.23674954 0 0 0-58.54275 30.57074963 58.68450028 58.68450028 0 0 0 0 62.84250064c12.14325046 19.37250005 34.49249954 31.04324959 58.49549991 30.57074963 35.95725046-0.75599954 64.73250046-28.30275005 64.73250046-61.99199995 0-33.68924991-28.72799991-61.23600041-64.68525037-62.03925005z m264.60000032 186.02324995H247.39999968V761.42708333h529.20000064V141.27083332999996z"  horiz-adv-x="1024" />

    
    <glyph glyph-name="suoyin" unicode="&#59162;" d="M1024 630.506667V896H731.434667v-94.805333H438.826667v-379.264h-146.282667v94.805333H0v-265.472h292.565333v94.805333h146.282667v-379.264h292.586667V-128H1024V137.493333H731.434667V42.666667H512V346.069333h219.434667v-94.805333H1024V516.736H731.434667v-94.805333H512V725.333333h219.434667v-94.826666H1024zM219.434667 327.104H73.152v113.792h146.282667v-113.792zM804.565333 61.653333h146.282667v-113.792h-146.282667v113.792z m0 379.242667h146.282667v-113.770667h-146.282667v113.770667z m0 379.264h146.282667v-113.770667h-146.282667V820.138667z"  horiz-adv-x="1024" />

    
    <glyph glyph-name="bizhi" unicode="&#58943;" d="M909.869-46.836 196.663-46.836c-30.698 0-55.672 25.385-55.672 56.588L140.991 552.338c0 31.204 24.975 56.589 55.672 56.589l713.206 0c30.697 0 55.672-25.386 55.672-56.589l0-542.586C965.541-21.451 940.567-46.836 909.869-46.836zM196.663 563.927c-5.885 0-10.672-5.199-10.672-11.589l0-542.586c0-6.39 4.788-11.588 10.672-11.588l713.206 0c5.885 0 10.672 5.198 10.672 11.588L920.541 552.338c0 6.391-4.787 11.589-10.672 11.589L196.663 563.927zM892.582-19.455c-38.898 89.666-82.285 141.749-128.953 154.802-51.029 14.271-99.662-20.155-135.172-45.294-5.189-3.674-10.092-7.144-14.688-10.23-40.006-26.871-63.365-34.271-80.623-25.544-9.441 4.772-13.861 13.053-15.068 20.158-2.301 10.08-31.333 131.896-96.606 171.877-3.988 2.441-9.924 4.852-20.528 1.776-18.528-5.372-59.95-30.469-129.193-138.195-40.901-63.633-71.035-124.711-71.335-125.32l-40.385 19.852c1.27 2.583 31.583 64.02 73.865 129.801 25.087 39.03 49.184 71.417 71.62 96.26 30.288 33.537 57.403 53.433 82.897 60.823 20.314 5.891 39.873 3.6 56.562-6.623 68.627-42.033 102.377-145.207 113.243-185.33 6.346 2.896 16.107 8.182 30.461 17.821 4.137 2.779 8.818 6.094 13.775 9.603 19.51 13.812 43.789 30.999 72.32 42.967 35.287 14.8 69.26 17.808 100.975 8.937 29.176-8.16 56.807-26.457 82.129-54.381 27.215-30.014 52.779-72.355 75.986-125.848L892.582-19.455zM726.725 291c-56.244 0-102 45.757-102 102s45.756 102 102 102c56.242 0 102-45.757 102-102S782.967 291 726.725 291zM726.725 450c-31.43 0-57-25.57-57-57s25.57-57 57-57 57 25.57 57 57S758.155 450 726.725 450z"  horiz-adv-x="1024" />

    
    <glyph glyph-name="Programming" unicode="&#59051;" d="M942.152 666.88h-860.303c-45.107 0-81.848-36.639-81.848-81.828v-604.355c0-45.158 36.649-81.818 81.848-81.818h860.303c45.107 0 81.848 36.639 81.848 81.818v604.355c0 45.169-36.639 81.828-81.848 81.828zM480 613.55c29.45 0 53.34-23.88 53.34-53.33s-23.89-53.33-53.34-53.33-53.33 23.88-53.33 53.33 23.88 53.33 53.33 53.33zM320 613.55c29.45 0 53.33-23.88 53.33-53.33s-23.88-53.33-53.33-53.33-53.33 23.88-53.33 53.33 23.88 53.33 53.33 53.33zM160 613.55c29.45 0 53.33-23.88 53.33-53.33s-23.88-53.33-53.33-53.33-53.33 23.88-53.33 53.33 23.88 53.33 53.33 53.33zM960 3.891c0-22.651-18.299-41.011-40.98-41.011h-814.049c-22.63 0-40.97 18.299-40.97 41.011v449.659h896v-449.659zM342.61 112.353c7.823 0 14.295 2.222 19.425 6.636 5.12 4.434 7.68 10.23 7.68 17.398 0 6.799-2.56 12.483-7.68 17.050-5.13 4.557-11.418 6.851-18.872 6.851-7.363 0-13.691-2.243-19.005-6.707-5.304-4.485-7.956-10.209-7.956-17.193 0-6.892 2.58-12.626 7.752-17.193s11.387-6.84 18.657-6.84zM213.012 112.353c25.344 0 45.875 3.871 61.624 11.602v0 42.342c-15.831-9.318-33.403-13.967-52.685-13.967-20.49 0-36.751 6.472-48.773 19.415-12.012 12.943-18.022 30.044-18.022 51.282 0 21.801 6.328 39.465 19.005 52.961 12.667 13.517 29.573 20.265 50.729 20.265 18.534 0 35.113-4.28 49.746-12.851v44.575c-14.254 5.499-31.949 8.243-53.105 8.243-33.812 0-61.42-10.875-82.79-32.635-21.371-21.76-32.072-49.725-32.072-83.917 0-32.512 9.574-58.532 28.723-78.049 19.128-19.507 45.005-29.266 77.619-29.266zM342.61 224.85c7.823 0 14.295 2.212 19.425 6.625 5.12 4.424 7.68 10.22 7.68 17.398 0 6.902-2.56 12.585-7.68 17.050-5.13 4.475-11.418 6.707-18.872 6.707-7.363 0-13.691-2.243-19.005-6.707-5.304-4.475-7.956-10.148-7.956-17.050s2.54-12.616 7.608-17.183c5.079-4.557 11.336-6.84 18.801-6.84zM536.904 332.585h-40.806l-104.806-252.365h40.387z"  horiz-adv-x="1024" />

    
    <glyph glyph-name="abc1153313easyiconnet" unicode="&#58892;" d="M665.344 408c44.176 0 80 35.824 80 80l0 304c0 44.176-35.824 80-80 80l-304 0c-44.176 0-80-35.824-80-80l0-304c0-44.176 35.824-80 80-80L665.344 408zM329.344 488l0 304c0 17.648 14.352 32 32 32l304 0c17.648 0 32-14.352 32-32l0-304c0-17.648-14.352-32-32-32l-304 0C343.696 456 329.344 470.352 329.344 488zM25.344 296l0-304c0-44.176 35.824-80 80-80l304 0c44.176 0 80 35.824 80 80l0 304c0 44.176-35.824 80-80 80l-304 0C61.152 376 25.344 340.176 25.344 296zM441.344 296l0-304c0-17.648-14.352-32-32-32l-304 0c-17.648 0-32 14.352-32 32l0 304c0 17.648 14.352 32 32 32l304 0C426.992 328 441.344 313.648 441.344 296zM993.344 296c0 44.176-35.824 80-80 80l-304 0c-44.176 0-80-35.824-80-80l0-304c0-44.176 35.824-80 80-80l304 0c44.176 0 80 35.824 80 80L993.344 296zM945.344-8c0-17.648-14.352-32-32-32l-304 0c-17.648 0-32 14.352-32 32l0 304c0 17.648 14.352 32 32 32l304 0c17.648 0 32-14.352 32-32L945.344-8zM383.536 498.768c3.424-1.696 7.072-2.512 10.672-2.512 8.816 0 17.312 4.88 21.504 13.328l21.776 43.76 151.712 0 21.776-43.76c4.192-8.432 12.688-13.328 21.504-13.328 3.6 0 7.248 0.816 10.672 2.512 11.872 5.904 16.704 20.32 10.8 32.176L534.832 770.416c-0.096 0.192-0.24 0.352-0.336 0.544-0.4 0.768-0.88 1.456-1.36 2.16-0.416 0.608-0.8 1.248-1.28 1.808-0.48 0.576-1.024 1.088-1.552 1.616-0.592 0.592-1.152 1.2-1.808 1.728-0.512 0.416-1.072 0.768-1.616 1.136-0.752 0.528-1.52 1.04-2.352 1.488-0.176 0.096-0.32 0.224-0.496 0.304-0.448 0.224-0.912 0.32-1.36 0.512-0.816 0.352-1.648 0.688-2.48 0.944-0.72 0.208-1.456 0.352-2.176 0.512-0.784 0.16-1.568 0.304-2.352 0.384-0.768 0.08-1.536 0.08-2.32 0.08-0.768 0-1.552 0-2.32-0.08-0.784-0.08-1.568-0.224-2.352-0.384-0.736-0.144-1.456-0.288-2.16-0.496-0.848-0.256-1.68-0.592-2.528-0.96-0.432-0.192-0.896-0.288-1.328-0.496-0.176-0.08-0.304-0.208-0.48-0.304-0.848-0.448-1.632-0.992-2.416-1.52-0.528-0.368-1.072-0.688-1.568-1.088-0.672-0.544-1.264-1.168-1.872-1.792-0.512-0.512-1.024-0.992-1.488-1.568-0.48-0.592-0.88-1.232-1.296-1.856-0.464-0.688-0.944-1.376-1.344-2.128-0.096-0.192-0.24-0.352-0.336-0.544l-119.12-239.472C366.832 519.088 371.664 504.672 383.536 498.768zM513.344 705.84l51.968-104.496-103.952 0L513.344 705.84zM200-5.84l60.832 0c51.744 0 93.84 42.096 93.84 93.84 0 35.872-20.256 67.072-49.904 82.864C314.224 183.696 320 199.376 320 216.512c0 42.64-34.688 77.328-77.328 77.328L200 293.84c-17.824 0-32.784-11.792-37.936-27.92C160.768 262.96 160 259.696 160 256.24l0-2.4 0-74.672 0-37.328 0-107.68 0-1.376c0-1.904 0.272-3.744 0.704-5.52C164 8.496 180.32-5.84 200-5.84zM306.672 88c0-25.28-20.56-45.84-45.84-45.84L208 42.16l0 91.68 52.832 0C286.112 133.84 306.672 113.28 306.672 88zM272 216.512c0-16.176-13.152-29.328-29.328-29.328L208 187.184l0 58.672 34.672 0C258.848 245.84 272 232.688 272 216.512zM845.28 74.752c-17.712-16.688-40.864-25.872-65.216-25.872-52.448 0-95.104 42.672-95.104 95.12s42.672 95.12 95.104 95.12c23.296 0 45.696-8.512 63.104-23.952 9.92-8.8 25.104-7.904 33.888 2.016 8.8 9.92 7.888 25.088-2.016 33.888-26.208 23.248-59.92 36.032-94.96 36.032-78.912 0-143.104-64.208-143.104-143.12s64.192-143.12 143.104-143.12c36.624 0 71.472 13.824 98.128 38.944 9.648 9.088 10.096 24.288 1.008 33.936C870.128 83.376 854.944 83.84 845.28 74.752z"  horiz-adv-x="1024" />

    
    <glyph glyph-name="vcr" unicode="&#58946;" d="M229.204 565.796c0-44.624 36.176-80.798 80.798-80.798s80.798 36.176 80.798 80.798c0 44.624-36.176 80.798-80.798 80.798-44.624 0-80.798-36.176-80.798-80.798zM431.202 585.998c0-55.78 45.219-100.998 100.998-100.998s100.998 45.219 100.998 100.998c0 55.78-45.219 100.998-100.998 100.998-55.78 0-100.998-45.219-100.998-100.998zM835.196 404.201l-161.599-80.798v80.798c0 22.22-18.18 40.398-40.398 40.398h-403.995c-22.22 0-40.398-18.18-40.398-40.398v-282.796c0-22.22 18.18-40.398 40.398-40.398h403.995c22.22 0 40.398 18.18 40.398 40.398v80.798l161.599-80.798v282.796z"  horiz-adv-x="1024" />

    
    <glyph glyph-name="xiaoshuo" unicode="&#58904;" d="M946.424242 771.878788C946.424242 780.443152 939.473455 787.393939 930.909091 787.393939L698.181818 787.393939C612.491636 787.393939 543.030303 717.932606 543.030303 632.242424L543.030303 616.975515 543.030303 480.364606 543.030303 182.30303 543.030303 166.787879 543.030303 89.212121 543.030303 73.69697 543.030303 30.17697C572.416 55.621818 610.133333 71.524848 651.636364 73.309091L651.636364 73.69697 930.909091 73.69697C939.473455 73.69697 946.424242 80.647758 946.424242 89.212121L946.424242 771.878788ZM480.969697 480.364606 480.969697 632.242424C480.969697 717.932606 411.508364 787.393939 325.818182 787.393939L93.090909 787.393939C84.526545 787.393939 77.575758 780.443152 77.575758 771.878788L77.575758 89.212121C77.575758 80.647758 84.526545 73.69697 93.090909 73.69697L372.363636 73.69697 372.363636 73.309091C413.866667 71.524848 451.584 55.621818 480.969697 30.17697L480.969697 73.69697 480.969697 89.212121 480.969697 166.787879 480.969697 182.30303 480.969697 480.364606ZM946.424242 11.636364 794.468848 11.636364 651.636364 11.636364 651.636364 11.248485C593.578667 7.400727 547.250424-38.927515 543.402667-96.969697L542.642424-96.969697 481.357576-96.969697 480.597333-96.969697C476.749576-38.927515 430.421333 7.400727 372.363636 11.248485L372.363636 11.636364 229.531152 11.636364 77.575758 11.636364C43.302788 11.636364 15.515152 39.424 15.515152 73.69697L15.515152 787.393939C15.515152 821.666909 43.302788 849.454545 77.575758 849.454545L347.260121 849.454545 348.222061 848.306424C400.104727 842.984727 446.43297 819.262061 480.969697 783.949576L480.969697 787.393939 480.969697 787.393939 480.969697 783.949576C492.854303 771.785697 503.032242 758.054788 511.813818 743.39297 546.117818 800.783515 605.944242 841.153939 675.777939 848.306424L676.739879 849.454545 946.424242 849.454545C980.697212 849.454545 1008.484848 821.666909 1008.484848 787.393939L1008.484848 73.69697C1008.484848 39.424 980.697212 11.636364 946.424242 11.636364L946.424242 11.636364Z"  horiz-adv-x="1024" />

    
    <glyph glyph-name="kindle" unicode="&#59043;" d="M170.666667 21.333333V746.666667c0 46.933333 38.4 85.333333 85.333333 85.333333h512c46.933333 0 85.333333-38.4 85.333333-85.333333v-725.333334c0-46.933333-38.4-85.333333-85.333333-85.333333H256c-46.933333 0-85.333333 38.4-85.333333 85.333333zM746.666667 768H277.333333c-12.8 0-21.333333-8.533333-21.333333-21.333333v-618.666667c0-12.8 8.533333-21.333333 21.333333-21.333333h469.333334c12.8 0 21.333333 8.533333 21.333333 21.333333V746.666667c0 12.8-8.533333 21.333333-21.333333 21.333333zM426.666667 42.666667h170.666666v-42.666667h-170.666666zM341.333333 661.333333h341.333334v-64H341.333333zM341.333333 512h341.333334v-42.666667H341.333333zM341.333333 426.666667h256v-42.666667H341.333333zM341.333333 341.333333h341.333334v-42.666666H341.333333zM341.333333 256h256v-42.666667H341.333333z"  horiz-adv-x="1024" />

    
    <glyph glyph-name="youxi" unicode="&#59194;" d="M1001.38747937 395.70285714c-27.87880635 249.29686349-142.82686984 338.08253968-241.18288254 338.08253969a157.2343873 157.2343873 0 0 1-85.4568635-29.8032762A275.66730159 275.66730159 0 0 0 512 659.04314921a275.1991873 275.1991873 0 0 0-162.69572063 45.04299682 157.75451429 157.75451429 0 0 1-85.4568635 29.75126349c-98.4080254 0-213.25206349-88.78567619-241.18288254-338.08253968C2.27555556 214.80269206000003 12.67809524 108.69678729999998 55.17246984 61.83334603000003a81.92 81.92 0 0 1 63.29945397-27.56673016c65.27593651 0 102.62105397 38.74946032 145.63555556 83.68843175 15.34374603 15.60380952 31.20761905 32.24787302 49.62011428 48.63187301a197.64825397 197.64825397 0 0 0 142.46278095 48.68388572c8.06196825 0 15.96789841 0 23.56175238-0.41610159s14.35550476-0.36408889 21.06514286-0.36408889h21.84533333c6.81366349 0 13.41927619 0 21.11715556 0.36408889s15.60380952 0.41610159 23.56175238 0.41610159a197.64825397 197.64825397 0 0 0 142.46278095-48.68388572c18.46450794-16.384 34.27636825-32.8200127 49.62011429-48.63187301 43.01450159-44.93897143 80.35961905-83.68843175 145.63555555-83.68843175a82.44012698 82.44012698 0 0 1 63.40347937 27.56673016c42.85846349 46.86344127 53.26100317 152.91733333 32.9240381 333.86951111zM422.85023492 429.61513651A32.14384762 32.14384762 0 0 0 387.16952381 401.47626667H306.65386667v-82.44012699a32.24787302 32.24787302 0 0 0-64.44373334 2.54862222V401.47626667H161.74648889a31.98780952 31.98780952 0 1 0 0 63.81958095h80.46364444V545.23936508a32.19586032 32.19586032 0 1 0 64.39172064 0v-79.94351746H387.16952381a32.14384762 32.14384762 0 0 0 35.68071111-35.68071111zM662.8368254 385.61239365a47.95570794 47.95570794 0 1 0 48.00772063 48.00772064 47.95570794 47.95570794 0 0 0-48.00772063-48.00772064z m96.32751746-96.32751746a47.95570794 47.95570794 0 1 0 47.95570793 48.00772064 47.95570794 47.95570794 0 0 0-47.74765714-48.00772064z m0 191.45874286a47.95570794 47.95570794 0 1 0 48.00772063 48.00772063 47.95570794 47.95570794 0 0 0-47.85168254-48.00772063z m97.00368254-95.1312254a47.95570794 47.95570794 0 1 0 48.00772063 48.00772064 47.95570794 47.95570794 0 0 0-47.85168254-48.00772064z"  horiz-adv-x="1024" />

    
    <glyph glyph-name="windows" unicode="&#58884;" d="M0 12.914721999999983l419.694251-57.842781V355.68643699999996H0zM0 407.384123h419.694251V812.921592L0 755.078812zM465.848203-51.08608600000002l558.151797-76.913914V355.692904H465.848203zM465.854669 819.077465v-411.693342h558.145331V896z"  horiz-adv-x="1024" />

    
    <glyph glyph-name="cili" unicode="&#59016;" d="M768 447v-192h-96V468h0.643C662.353 546.995 594.8 608 513 608c-88.918 0-161-72.082-161-161v-192h-96V468h0.807C267.251 600.076 377.74 704 512.5 704 654.161 704 769 589.161 769 447.5v-0.5h-1z m152 261.652v-650.61c15.944-7.429 28.318-21.234 33.844-38.138A23.89 23.89 0 0 0 957 8c0-1.027-0.065-2.04-0.19-3.033 0.126-1.64 0.19-3.296 0.19-4.967 0-35.346-28.654-64-64-64-29.821 0-54.879 20.396-61.984 48H186.984c-7.105-27.604-32.163-48-61.984-48-35.346 0-64 28.654-64 64 0 27.99 17.969 51.784 43 60.475V708.652C80.545 718.146 64 741.141 64 768c0 0.365 0.003 0.729 0.01 1.092A24.002 24.002 0 0 0 63 776a23.899 23.899 0 0 0 5.25 14.984C77.487 814.975 100.756 832 128 832c23.689 0 44.372-12.87 55.438-32h657.124C851.628 819.13 872.311 832 896 832c28.397 0 52.475-18.495 60.844-44.096A23.89 23.89 0 0 0 960 776c0-1.027-0.065-2.04-0.19-3.033 0.126-1.64 0.19-3.296 0.19-4.967 0-26.859-16.545-49.854-40-59.348z m-48 0c-18.63 7.541-32.901 23.6-37.984 43.348H189.984C184.9 732.252 170.63 716.193 152 708.652v-650.61A64.273 64.273 0 0 0 180.438 32h657.124c7.63 13.19 19.831 23.404 34.438 28.475V708.652zM256 191h96v-96h-96v96z m416 0h96v-96h-96v96z"  horiz-adv-x="1024" />

    
    <glyph glyph-name="ios" unicode="&#58889;" d="M760.8 352c0 114.2 91.3 169 95.9 173.6-54.8 77.6-137 86.8-164.4 91.3-68.5 9.1-137-41.1-173.6-41.1s-91.3 41.1-150.7 41.1c-77.6 0-146.1-45.7-187.3-114.2-77.6-137-18.3-342.5 59.4-452.1 36.5-54.8 82.2-114.2 141.6-114.2 54.8 0 77.6 36.5 146.1 36.5s86.8-36.5 150.7-36.5c59.4 0 100.5 54.8 137 109.6 45.7 63.9 59.4 123.3 63.9 127.9 0.2-4.6-118.6 41.1-118.6 178.1zM646.6 685.4c32 36.5 54.8 91.3 45.7 146.1-45.7 0-100.5-32-132.4-68.5-27.4-32-54.8-86.8-45.7-141.6 50.2 0.1 100.5 27.5 132.4 64z"  horiz-adv-x="1024" />

    
    <glyph glyph-name="dujiameiju" unicode="&#59258;" d="M102.4 806.4h819.2a51.2 51.2 0 0 0 51.2-51.2v-614.4a51.2 51.2 0 0 0-51.2-51.2H102.4a51.2 51.2 0 0 0-51.2 51.2V755.2a51.2 51.2 0 0 0 51.2 51.2z m76.8-128h665.6v-460.8H179.2V678.4z m-25.6 51.2a25.6 25.6 0 0 1-25.6-25.6v-512a25.6 25.6 0 0 1 25.6-25.6h716.8a25.6 25.6 0 0 1 25.6 25.6V704a25.6 25.6 0 0 1-25.6 25.6H153.6z m230.1056-377.3056v198.016H338.688v-79.2064h-86.4v79.1936h-45.0048v-198.0032h45.0048v80.1024h86.4v-80.1024h45.0048z m125.9904 0c49.2032 0 73.8048 19.5072 73.8048 58.496-3.5968 24.6144-19.2 39.9104-46.7968 45.9136 25.792 7.808 38.6944 23.3984 38.6944 46.7968-2.3936 30.0032-25.792 45.5936-70.1952 46.7968h-92.6976v-198.0032h97.1904z m-11.6992 164.7104c19.2 0 29.1072-7.2064 29.696-21.6064-0.5888-16.2048-10.496-24.6016-29.696-25.2032h-40.4992v46.8096h40.4992z m4.5056-80.1024c20.4032-0.6016 31.488-9.3056 33.2928-26.112-0.6016-17.9968-11.9936-26.9952-34.2016-26.9952h-44.096v53.1072h45.0048zM710.4 396.8a57.6 57.6 0 1 0 0 115.2 57.6 57.6 0 0 0 0-115.2z m0-51.2a108.8 108.8 0 1 1 0 217.6 108.8 108.8 0 0 1 0-217.6z m0 76.8a32 32 0 1 1 0 64 32 32 0 0 1 0-64zM192 38.4h640a38.4 38.4 0 0 0 0-76.8H192a38.4 38.4 0 0 0 0 76.8z"  horiz-adv-x="1024" />

    
    <glyph glyph-name="lunwen" unicode="&#59045;" d="M800.3584 793.6H276.48a133.12 133.12 0 0 1-133.12-133.12v-553.984A133.12 133.12 0 0 1 276.48-25.6h523.8784A80.384 80.384 0 0 1 880.64 54.6816V713.3184A80.384 80.384 0 0 1 800.3584 793.6z m-458.5472-55.296h138.24v-182.4768l-45.7728 72.2944a27.648 27.648 0 0 1-46.6944 0l-45.7728-72.2944zM198.656 660.48a77.4144 77.4144 0 0 0 77.824 77.824h10.24v-277.6064A27.648 27.648 0 0 1 337.92 445.44l73.4208 115.9168L484.352 445.44a27.648 27.648 0 0 1 51.2 14.848V738.304h264.8064a24.9856 24.9856 0 0 0 24.9856-24.9856V239.616H276.48a131.072 131.072 0 0 1-77.312-24.9856z m626.688-605.7984a24.9856 24.9856 0 0 0-24.9856-24.9856H276.48a77.312 77.312 0 0 0 0 154.624h548.864v-129.6384z"  horiz-adv-x="1024" />

    
    <glyph glyph-name="dianshi" unicode="&#58916;" d="M957.139029 673.348953H668.057444L912.641864 855.837328c9.899369 7.399529 11.899242 21.298643 4.499713 31.198013C909.742048 896.93471 895.842934 898.934583 885.943564 891.535054L599.161833 677.448692 202.087127 893.234946c-10.799312 5.899624-24.298452 1.899879-30.198077-8.899433-5.899624-10.799312-1.899879-24.398446 8.899434-30.198076l332.578814-180.788484H66.795745C29.998089 673.348953 0 643.350864 0 606.553208v-667.757463C0-98.001911 29.998089-128 66.795745-128h890.343284c36.797656 0 66.795745 29.998089 66.795745 66.795745V606.553208c0 36.797656-29.998089 66.795745-66.795745 66.795745z m22.29858-734.553208c0-12.299217-9.999363-22.29858-22.29858-22.29858H66.795745c-12.299217 0-22.29858 9.999363-22.29858 22.29858V606.553208c0 12.299217 9.999363 22.29858 22.29858 22.29858h890.343284c12.299217 0 22.29858-9.999363 22.29858-22.29858v-667.757463zM623.260298 562.056043H178.088656c-36.797656 0-66.795745-29.998089-66.795745-66.795745v-445.171642c0-36.797656 29.998089-66.795745 66.795745-66.795745h445.171642c36.797656 0 66.795745 29.998089 66.795745 66.795745V495.260298c0 36.797656-29.998089 66.795745-66.795745 66.795745z m22.298579-511.967387c0-12.299217-9.999363-22.29858-22.298579-22.29858H178.088656c-12.299217 0-22.29858 9.999363-22.29858 22.29858V495.260298c0 12.299217 9.999363 22.29858 22.29858 22.298579h445.171642c12.299217 0 22.29858-9.999363 22.298579-22.298579v-445.171642zM845.846119 562.056043c-49.096872 0-88.994331-39.897458-88.994331-88.994331s39.897458-88.994331 88.994331-88.994331 88.994331 39.897458 88.994331 88.994331-39.897458 88.994331-88.994331 88.994331z m0-133.59149c-24.498439 0-44.497165 19.998726-44.497166 44.497165s19.998726 44.497165 44.497166 44.497166 44.497165-19.998726 44.497165-44.497166-19.898732-44.497165-44.497165-44.497165zM912.641864 121.28412H779.050374c-12.299217 0-22.29858-9.999363-22.29858-22.298579s9.999363-22.29858 22.29858-22.29858h133.59149c12.299217 0 22.29858 9.999363 22.298579 22.29858s-9.999363 22.29858-22.298579 22.298579zM912.641864 32.289789H779.050374c-12.299217 0-22.29858-9.999363-22.29858-22.298579s9.999363-22.29858 22.29858-22.29858h133.59149c12.299217 0 22.29858 9.999363 22.298579 22.29858s-9.999363 22.29858-22.298579 22.298579zM912.641864 210.378445H779.050374c-12.299217 0-22.29858-9.999363-22.29858-22.29858s9.999363-22.29858 22.29858-22.298579h133.59149c12.299217 0 22.29858 9.999363 22.298579 22.298579s-9.999363 22.29858-22.298579 22.29858z"  horiz-adv-x="1024" />

    
    <glyph glyph-name="guge" unicode="&#58941;" d="M481.672533 260.693333V491.946667h531.2l5.717334-38.826667c3.498667-23.594667 5.290667-47.445333 5.418666-71.338667C1024.008533 100.608 794.333867-128 511.880533-128 166.152533-128-83.0208 205.226667 25.821867 546.133333 92.040533 753.493333 291.421867 896 511.9232 896c114.133333 0 216.192-34.56 304.512-103.296l32-24.917333-122.282667-199.978667-38.741333 22.528C614.237867 632.96 555.101867 653.653333 512.4352 653.653333a271.701333 271.701333 0 0 1-267.690667-266.410666A269.184 269.184 0 0 1 320.861867 193.28a271.530667 271.530667 0 0 1 191.018666-83.498667 272.64 272.64 0 0 1 244.48 150.869334H481.7152z m245.504 483.626667c-64 40.618667-135.381333 60.757333-215.253333 60.757333-181.077333 0-345.002667-117.205333-399.018667-286.464-90.026667-281.941333 114.688-555.690667 398.933334-555.690666 232.021333 0 420.821333 187.946667 420.821333 418.645333 0 6.485333-0.213333 12.970667-0.554667 19.456H573.021867v-49.408h312.405333l-19.626667-59.605333-7.722666-23.466667c-49.28-149.205333-188.416-249.557333-347.093334-249.6a363.605333 363.605333 0 0 0-256 111.402667 359.850667 359.850667 0 0 0-101.546666 258.645333c3.925333 195.370667 160.938667 351.616 358.058666 355.541333 52.821333 0 113.450667-18.304 182.741334-54.101333l32.938666 53.888z"  horiz-adv-x="1024" />

    
    <glyph glyph-name="xunlei" unicode="&#59828;" d="M432.64 488.96s199.68 217.6 468.48 322.56c0 0 12.8 5.12 2.56-7.68s-56.32-84.48-66.56-97.28l-35.84-33.28 17.92 5.12-35.84-79.36-46.08-46.08 33.28 10.24-38.4-92.16-40.96-40.96 35.84 20.48s-17.92-38.4-35.84-66.56c0 0 163.84-17.92 302.08-81.92 0 0-76.8-20.48-107.52-28.16l-33.28 7.68 15.36-10.24-35.84-15.36c-2.56 0-28.16 7.68-40.96 2.56 0 0 15.36-5.12 17.92-10.24l-38.4-15.36s-7.68-5.12-15.36-5.12c-5.12 0-38.4 7.68-48.64 2.56 0 0 20.48-10.24 28.16-10.24 0 0-12.8-17.92-122.88-23.04 0 0 81.92-227.84 79.36-258.56-2.56-30.72-48.64 35.84-48.64 35.84s-69.12 76.8-89.6 92.16c-20.48 15.36-79.36 25.6-204.8 104.96s-125.44 181.76-117.76 230.4c7.68 48.64 7.68 84.48-23.04 94.72s-81.92 23.04-189.44 25.6c0 0-17.92 12.8 12.8 12.8 30.72-2.56 112.64-2.56 156.16 5.12 48.64 10.24 66.56 25.6 104.96 20.48 38.4-5.12 87.04-17.92 140.8-71.68z"  horiz-adv-x="1024" />

    
    <glyph glyph-name="xitong" unicode="&#58885;" d="M960 346.22976V421.77024a32 32 0 0 1-25.71776 31.38048l-97.59232 19.51744a32.11264 32.11264 0 0 0-23.8592 20.61824 309.36064 309.36064 0 0 1-10.8288 26.12224 32.1536 32.1536 0 0 0 2.2784 31.47776l55.20896 82.81088a32 32 0 0 1-3.99872 40.38144l-53.41184 53.41184a32 32 0 0 1-40.38144 3.99872l-82.81088-55.20896a32.1536 32.1536 0 0 0-31.47776-2.2784 303.4112 303.4112 0 0 1-26.13248 10.81856 32.11264 32.11264 0 0 0-20.61824 23.8592l-19.51744 97.60256a32 32 0 0 1-31.37024 25.71776H474.22976a32 32 0 0 1-31.38048-25.71776l-19.51744-97.59232a32.11264 32.11264 0 0 0-20.61824-23.8592 309.36064 309.36064 0 0 1-26.12224-10.8288 32.1536 32.1536 0 0 0-31.47776 2.2784L262.2976 731.48928a32 32 0 0 1-40.38144-3.99872L168.50944 674.07872a32 32 0 0 1-3.99872-40.38144l55.20896-82.81088a32.1536 32.1536 0 0 0 2.2784-31.47776 303.4112 303.4112 0 0 1-10.81856-26.13248 32.11264 32.11264 0 0 0-23.8592-20.61824l-97.59744-19.51744a32 32 0 0 1-25.71776-31.37024v-75.53024a32 32 0 0 1 25.71776-31.38048l97.59232-19.52256a32.11264 32.11264 0 0 0 23.8592-20.61824 309.57056 309.57056 0 0 1 10.8288-26.13248 32.1536 32.1536 0 0 0-2.2784-31.47776L164.51072 134.2976a32 32 0 0 1 3.99872-40.38144l53.41184-53.41184a32 32 0 0 1 40.38144-3.99872l82.81088 55.20896a32.1536 32.1536 0 0 0 31.47776 2.2784 303.4112 303.4112 0 0 1 26.13248-10.81856 32.11264 32.11264 0 0 0 20.61824-23.8592l19.51744-97.59232a32 32 0 0 1 31.37024-25.728h75.53024a32 32 0 0 1 31.38048 25.71776l19.52256 97.59232a32.11264 32.11264 0 0 0 20.61824 23.8592 309.57056 309.57056 0 0 1 26.13248 10.8288 32.1536 32.1536 0 0 0 31.47776-2.2784l82.81088-55.20896a32 32 0 0 1 40.38144 3.99872l53.41184 53.41184a32 32 0 0 1 3.99872 40.38144l-55.20896 82.81088a32.1536 32.1536 0 0 0-2.2784 31.47776 303.4112 303.4112 0 0 1 10.81856 26.13248 32.11264 32.11264 0 0 0 23.8592 20.61824l97.59232 19.51744a32.01024 32.01024 0 0 1 25.72288 31.37536z m-312.23808-98.00192c-74.9824-74.97728-196.55168-74.97216-271.52896 0.01024s-74.97216 196.55168 0.01024 271.52896 196.55168 74.97216 271.52896-0.01024A192.01024 192.01024 0 0 0 704 384a190.75584 190.75584 0 0 0-56.23808-135.76192v-0.01024z"  horiz-adv-x="1024" />

    
    <glyph glyph-name="picture" unicode="&#59163;" d="M813.314 655.448H109.407c-24.661 0-44.72-20.166-44.72-45.046v-551.307c0-24.818 20.059-45.039 44.72-45.039h703.908c24.687 0 44.712 20.2 44.712 45.039V610.4300000000001c-0.053 24.909-20.025 45.018-44.713 45.018z m-44.697-90.023V159.61L666.386 284.571c-3.772 4.561-10.423 5.396-15.196 1.902l-118.918-87.436-204.189 200.016c-2.376 2.339-5.656 3.36-8.834 3.153-3.326-0.292-6.256-2.058-8.126-4.745L154.112 171.26V565.425h614.505z m-268.151-168.78c0 40.345 32.58 73.167 72.604 73.167 40.071 0 72.596-32.823 72.596-73.167 0-40.25-32.525-73.103-72.596-73.103-40.024 0-72.604 32.853-72.604 73.103z m422.745-219.358c-18.509 0-33.513 15.119-33.513 33.716V687.355H193.227c-18.509 0-33.5 15.069-33.5 33.711 0 18.628 14.991 33.711 33.5 33.711h729.984c18.497 0 33.529-15.083 33.529-33.711v-510.104c-0.001-18.556-15.032-33.675-33.529-33.675z"  horiz-adv-x="1024" />

    
    <glyph glyph-name="houqi" unicode="&#58963;" d="M491.412475 795.5283a152.671837 152.671837 0 0 1-286.941265 0H0v-111.777595h204.47121a152.671837 152.671837 0 0 1 284.214983 0H1090.513122V795.5283zM349.64577 175.980533A152.671837 152.671837 0 0 1 204.47121 79.879064H0v-108.369742h204.47121a152.671837 152.671837 0 0 1 284.214983 0H1090.513122v108.369742H491.412475a152.671837 152.671837 0 0 1-141.766705 96.101469zM795.393008 542.66557a152.671837 152.671837 0 0 1-145.174559-104.961888H0v-111.777595h657.034156a152.671837 152.671837 0 0 1 276.717704 0H1090.513122V437.703682h-149.945555a152.671837 152.671837 0 0 1-145.174559 104.961888z"  horiz-adv-x="1094" />

    
    <glyph glyph-name="ppt" unicode="&#58886;" d="M774.6 492.9c-4.1 65.5-57.3 122.8-122.8 122.8v-126.9c41.1 4.1 81.9 4.1 122.8 4.1z m0 0M893.4 100h-307v77.8h225.1v36.9h-225v49h225.1v36.9H586.5v57.3c36.9-12.3 77.8-12.3 110.5 12.3 36.9 20.5 53.1 61.4 57.3 102.3H631.5V595.1c-16.4-4.1-28.6-8.1-45-8.1v94.1h307V100zM377.8 353.7c-20.5-8.1-45-8.1-69.5-8.1V235c-16.4 0-36.9 4.1-57.3 4.1v307c49.1-4.1 110.5 20.5 155.5-16.4 40.8-53.2 28.5-143.2-28.7-176zM922 672.9c4.1 20.5-16.4 40.9-36.9 36.9H586.5v85.9h-53.2c-143.2-24.5-286.5-49.1-429.6-77.8v-667.1C246.9 26.3 386 1.7 529.3-27h57.3v94.1h278.2c16.4 0 32.8 0 49.1 8.1 8.1 24.5 8.1 45 8.1 65.5V672.9z m0 0M308.2 492.9v-94.1c20.5 4.1 40.9 0 53.2 20.5 8.1 20.5 8.1 45 0 61.4-12.3 16.3-36.9 12.2-53.2 12.2z m0 0"  horiz-adv-x="1024" />

    
    <glyph glyph-name="anime" unicode="&#58887;" d="M892 564.3L711 391.2c-6.1-5.9-6.3-15.6-0.4-21.7l175.3-179.7c26.8-27.4 39.6-62.7 36-99.1-3.4-34.5-22-66.6-51.3-88.3-23.3-20.5-131-106.4-302.3-106.4-279.2 0-506.4 218-506.4 486S289.1 868 568.3 868c185.7 0 291.6-93.6 315.1-116.9 28.1-22.4 45.5-54.6 47.9-88.7 2.5-36.6-11.4-71.4-39.3-98.1zM837.4 697l-2 1.5-1.8 1.8c-9.7 9.9-100 97.1-265.3 97.1-239.8 0-434.8-186.4-434.8-415.5s195.1-415.5 434.8-415.5c151.8 0 245.3 80.1 255.4 89.2l1.4 1.3 1.6 1.1c13.7 9.8 22.4 24.2 23.9 39.4 1.6 15.9-4.1 30.9-16.3 43.5L658.9 320.79999999999995C626 354.70000000000005 627 409 661.1 441.7l181.1 173.1c12.7 12.1 18.8 27 17.8 42.8-1.1 14.9-9.3 29.3-22.6 39.4zM600.5 570.3c-31.8 0-60.5 18.9-72.7 47.9-12.2 29-5.4 62.3 17.2 84.4 22.5 22.1 56.4 28.7 85.8 16.6 29.4-12 48.5-40.4 48.4-71.7 0-20.5-8.3-40.2-23.1-54.7-14.8-14.4-34.8-22.5-55.6-22.5z"  horiz-adv-x="1024" />

    
    <glyph glyph-name="meihua" unicode="&#59137;" d="M627.2 285.866667c0 12.8 8.533333 21.333333 21.333333 21.333333 59.733333 0 110.933333 51.2 110.933334 110.933333 0 12.8 8.533333 21.333333 21.333333 21.333334s21.333333-8.533333 21.333333-21.333334c0-59.733333 51.2-110.933333 110.933334-110.933333 12.8 0 21.333333-8.533333 21.333333-21.333333s-8.533333-21.333333-21.333333-21.333334c-59.733333 0-110.933333-51.2-110.933334-110.933333 0-12.8-8.533333-21.333333-21.333333-21.333333s-21.333333 8.533333-21.333333 21.333333c0 59.733333-51.2 110.933333-110.933334 110.933333-12.8 0-21.333333 8.533333-21.333333 21.333334z m153.6 51.2c-12.8-21.333333-29.866667-38.4-55.466667-55.466667 21.333333-12.8 38.4-29.866667 55.466667-55.466667 12.8 21.333333 29.866667 38.4 55.466667 55.466667-21.333333 17.066667-42.666667 34.133333-55.466667 55.466667z m0 0M490.666667 733.866667c0 12.8 8.533333 21.333333 21.333333 21.333333s21.333333 8.533333 21.333333 21.333333 8.533333 21.333333 21.333334 21.333334 21.333333-8.533333 21.333333-21.333334 8.533333-21.333333 21.333333-21.333333 21.333333-8.533333 21.333334-21.333333-8.533333-21.333333-21.333334-21.333334-21.333333-8.533333-21.333333-21.333333-8.533333-21.333333-21.333333-21.333333-21.333333 8.533333-21.333334 21.333333-8.533333 21.333333-21.333333 21.333333c-8.533333-4.266667-21.333333 8.533333-21.333333 21.333334z m0 0M704 563.2l-25.6 25.6c-29.866667 29.866667-76.8 29.866667-106.666667 0L98.133333 115.2c-12.8-12.8-21.333333-34.133333-21.333333-55.466667s8.533333-38.4 21.333333-55.466666l25.6-25.6c12.8-12.8 34.133333-21.333333 55.466667-21.333334s38.4 8.533333 55.466667 21.333334l473.6 473.6c12.8 17.066667 17.066667 38.4 17.066666 55.466666 0 21.333333-4.266667 38.4-21.333333 55.466667z m-145.066667-166.4l-371.2-371.2c-4.266667-4.266667-4.266667-4.266667-8.533333-4.266667s-8.533333 0-8.533333 4.266667l-25.6 25.6c-4.266667 4.266667-4.266667 4.266667-4.266667 8.533333s0 8.533333 4.266667 8.533334l371.2 371.2 42.666666-42.666667z m106.666667 110.933333c0-4.266667 0-8.533333-4.266667-8.533333l-59.733333-59.733333L554.666667 486.4l59.733333 59.733333c4.266667 4.266667 12.8 4.266667 21.333333 0l12.8-12.8 12.8-12.8c4.266667-4.266667 4.266667-8.533333 4.266667-12.8zM716.8 644.266667c0 12.8 8.533333 21.333333 21.333333 21.333333 38.4 0 68.266667 29.866667 68.266667 68.266667 0 12.8 8.533333 21.333333 21.333333 21.333333s21.333333-8.533333 21.333334-21.333333c0-38.4 29.866667-68.266667 68.266666-68.266667 12.8 0 21.333333-8.533333 21.333334-21.333333s-8.533333-21.333333-21.333334-21.333334c-38.4 0-68.266667-29.866667-68.266666-68.266666 0-12.8-8.533333-21.333333-21.333334-21.333334s-21.333333 8.533333-21.333333 21.333334c0 38.4-29.866667 68.266667-68.266667 68.266666-12.8-4.266667-21.333333 8.533333-21.333333 21.333334z m110.933333 21.333333c-4.266667-8.533333-12.8-17.066667-21.333333-21.333333 8.533333-4.266667 17.066667-12.8 21.333333-21.333334 4.266667 8.533333 12.8 17.066667 21.333334 21.333334-8.533333 4.266667-17.066667 12.8-21.333334 21.333333z m0 0M268.8 644.266667c0 12.8 8.533333 21.333333 21.333333 21.333333 38.4 0 68.266667 29.866667 68.266667 68.266667 0 12.8 8.533333 21.333333 21.333333 21.333333s21.333333-8.533333 21.333334-21.333333c0-38.4 29.866667-68.266667 68.266666-68.266667 12.8 0 21.333333-8.533333 21.333334-21.333333s-8.533333-21.333333-21.333334-21.333334c-38.4 0-68.266667-29.866667-68.266666-68.266666 0-12.8-8.533333-21.333333-21.333334-21.333334s-21.333333 8.533333-21.333333 21.333334c0 38.4-29.866667 68.266667-68.266667 68.266666-12.8-4.266667-21.333333 8.533333-21.333333 21.333334z m110.933333 21.333333c-4.266667-8.533333-12.8-17.066667-21.333333-21.333333 8.533333-4.266667 17.066667-12.8 21.333333-21.333334 4.266667 8.533333 12.8 17.066667 21.333334 21.333334-8.533333 4.266667-12.8 12.8-21.333334 21.333333z m0 0"  horiz-adv-x="1024" />

    
    <glyph glyph-name="yun" unicode="&#59528;" d="M771.64544 489.35936c-17.778688 131.289088-137.259008 226.574336-273.027072 217.77408-135.768064-8.828928-241.174528-118.734848-240.87552-251.14624-111.972352-4.947968-198.627328-97.30048-193.529856-206.26432 5.050368-108.982272 99.960832-193.282048 211.931136-188.356608h460.838912c115.800064-0.499712 212.379648 86.009856 221.478912 198.352896 9.10336 112.32256-72.384512 212.48-186.816512 229.640192z m112.6912-284.493824c-26.333184-44.384256-94.68928-93.589504-147.378176-93.589504h-433.90976l0.024576-0.026624a37.18144 37.18144 0 0 1-12.181504 0h-14.372864c-71.266304 0-159.629312 58.281984-159.629312 147.42528 0 69.353472 77.43488 148.523008 148.701184 148.523008 71.112704-0.200704 127.086592-27.131904 161.460224-124.481536 7.165952-20.29568-0.5632-41.71776 10.06592-49.076224 4.734976-3.278848 24.403968-4.370432 31.326208 1.093632 5.203968 4.108288 10.459136 11.137024 10.459136 23.943168-0.149504 88.199168-82.15552 173.256704-169.310208 197.4272v7.534592c0 99.067904 104.380416 193.589248 206.186496 193.589248 101.797888 0 195.231744-91.242496 195.231744-190.3104a35.36896 35.36896 0 0 1 10.815488-25.36448c6.909952-6.735872 16.287744-10.518528 26.058752-10.518528 52.688896 0.024576 101.351424-27.328512 127.709184-71.737344 26.341376-44.208128 35.084288-110.221312 8.742912-154.431488z"  horiz-adv-x="1024" />

    
    <glyph glyph-name="ziti" unicode="&#59205;" d="M976 896c26.88 0 48-21.76 48-48v-927.36c0.64-26.88-21.12-48.64-47.36-48.64H48a48 48 0 0 0-48 48V848C0 874.24 21.76 896 48 896h928z m-28.864-76.8H76.8v-870.4h870.336V819.2zM765.376 563.2H258.56C257.088 563.2 256 564.672 256 566.848V636.352C256 638.528 257.088 640 258.624 640h506.752c1.536 0 2.624-1.472 2.624-3.648v-69.504c0-1.472-1.088-3.648-2.624-3.648zM550.4 128H473.6V640h76.8z"  horiz-adv-x="1024" />

    
    <glyph glyph-name="liuyan" unicode="&#58907;" d="M921.344573 759.466667c55.970649 0 101.448161-44.814318 102.351892-100.433325l0.013745-1.68834V172.258792c0-55.828617-44.91855-101.200752-100.672716-102.102192l-1.692921-0.014891H497.188653L376.646443-50.13362c-0.904877-0.873951-2.025092-1.240483-3.000984-1.970112-0.904877-0.672358-1.5234-1.612743-2.549692-2.191176-0.474201-0.251991-1.004528-0.251991-1.477584-0.473056-1.747902-0.847606-3.527875-1.325244-5.39719-1.77081l-1.560053-0.369969c-0.861351-0.200447-1.718121-0.37226-2.588636-0.430675-1.577235-0.114541-3.097199 0.048107-4.641217 0.262299l-1.753628 0.246264c-1.164886 0.16723-2.3103 0.361951-3.452278 0.737647-0.980474 0.341333-1.897951 0.793772-2.816572 1.278282l-1.10647 0.591033c-1.774246 0.924349-3.401879 1.920859-4.92528 3.266721-0.396313 0.350497-0.89915 0.473056-1.271409 0.823552-0.631123 0.624251-0.85906 1.447803-1.406569 2.092671-0.728483 0.889987-1.66085 1.561199-2.329771 2.485549l-0.237101 0.358514-68.534694 115.338595H102.37251C46.400716 70.141709 0.916331 114.956027 0.0126 170.569306L0 172.258792V657.345002c0 55.827472 44.923132 101.206479 100.678443 102.10792l1.692922 0.013745h818.973208z m0-68.266667H102.371365c-18.679409 0-33.800018-14.898398-34.104698-33.297181v-485.644027c0-18.466362 14.931615-33.545736 33.540009-33.845835l0.564689-0.004581H306.444027l60.489306-101.797512 102.023159 101.797512h452.389226c18.678264 0 33.794291 14.892671 34.098971 33.291454V657.345002c0 18.473235-14.928179 33.550318-33.534282 33.854998h-0.564689zM460.670568 427.568107c0-18.23728 9.756635-35.095481 25.594273-44.215266a51.295069 51.295069 0 0 1 51.18511 0c15.838783 9.120931 25.589691 25.977987 25.589691 44.215266 0 28.204671-22.911714 51.061405-51.18511 51.061405-28.268814 0-51.183964-22.856734-51.183964-51.061405zM230.331275 427.568107c0-28.198944 22.918586-51.061405 51.191982-51.061405 28.267669 0 51.18511 22.862461 51.18511 51.061405 0 28.204671-22.917441 51.061405-51.18511 51.061405-28.273396 0-51.191982-22.856734-51.191982-51.061405zM691.00757 427.568107c0-28.198944 22.917441-51.061405 51.18511-51.061405 28.273396 0 51.186255 22.862461 51.186255 51.061405 0 28.204671-22.912859 51.061405-51.186255 51.061405-28.267669 0-51.18511-22.856734-51.18511-51.061405z"  horiz-adv-x="1024" />

    
    <glyph glyph-name="guanyu" unicode="&#58903;" d="M544.768 487.76533333c14.19946667 0 24.02986667 3.2768 34.95253333 15.29173334 10.92266667 7.64586667 14.19946667 19.6608 14.19946667 34.95253333 0 12.01493333-3.2768 22.9376-14.19946667 33.86026667-9.8304 12.01493333-20.75306667 15.29173333-34.95253333 15.29173333-14.19946667 0-24.02986667-3.2768-34.95253333-15.29173333-10.92266667-7.64586667-14.19946667-19.6608-14.19946667-33.86026667 0-12.01493333 3.2768-22.9376 14.19946667-34.95253333 10.92266667-6.5536 20.75306667-15.29173333 34.95253333-15.29173334z m14.19946667-275.2512c-10.92266667 0-17.47626667 0-20.75306667 3.2768-3.2768 3.2768-6.5536 12.01493333-6.5536 19.6608 0 3.2768 0 12.01493333 3.2768 19.6608 0 7.64586667 3.2768 15.29173333 3.2768 19.6608l20.75306667 76.45866667c3.2768 7.64586667 3.2768 15.29173333 3.2768 22.9376v19.6608c0 15.29173333-6.5536 30.58346667-17.47626667 38.22933333-10.92266667 12.01493333-24.02986667 15.29173333-44.78293333 15.29173334-10.92266667 0-20.75306667-3.2768-34.95253334-7.64586667-14.19946667-3.2768-24.02986667-7.64586667-38.22933333-15.29173333l-6.5536-22.9376c3.2768 0 6.5536 3.2768 14.19946667 3.2768 7.64586667 0 10.92266667 3.2768 17.47626666 3.2768 10.92266667 0 17.47626667-3.2768 20.75306667-3.2768 3.2768-3.2768 6.5536-12.01493333 6.5536-19.6608 0-3.2768 0-12.01493333-3.2768-19.6608 0-7.64586667-3.2768-15.29173333-3.2768-19.6608l-20.75306667-76.45866667c-3.2768-7.64586667-3.2768-15.29173333-3.2768-22.9376v-19.6608c0-15.29173333 6.5536-26.2144 17.47626667-38.22933333s24.02986667-15.29173333 44.78293333-15.29173334c14.19946667 0 24.02986667 0 34.95253334 3.2768s20.75306667 7.64586667 38.22933333 15.29173334l6.5536 22.9376c-3.2768 0-6.5536-3.2768-14.19946667-3.2768h-17.47626666zM506.53866667-96.59733332999997C243.3024-96.59733332999997 28.12586667 117.48693333000006 28.12586667 380.7232S242.21013333 859.136 506.53866667 859.136s478.4128-214.08426667 478.4128-478.4128C984.95146667 117.48693333000006 769.77493333-96.59733332999997 506.53866667-96.59733332999997z m0 901.12c-233.74506667 0-423.79946667-190.0544-423.79946667-423.79946667C82.7392 148.07039999999995 272.7936-41.98400000000004 506.53866667-41.98400000000004s423.79946667 190.0544 423.79946666 423.79946667c0 232.6528-190.0544 422.7072-423.79946666 422.7072z"  horiz-adv-x="1024" />

    
    <glyph glyph-name="tijiao" unicode="&#59081;" d="M512-128C229.218462-128 0 101.218462 0 384S229.218462 896 512 896s512-229.218462 512-512-229.218462-512-512-512z m-68.923077 551.384615v-344.615384h137.846154V423.384615H787.692308l-275.692308 275.692308-275.692308-275.692308h206.769231z"  horiz-adv-x="1024" />

    
    <glyph glyph-name="boke" unicode="&#58976;" d="M143.1 796.2h597.1c44 0 79.6-35.6 79.6-79.6v-664c0-44-35.6-79.6-79.6-79.6H143.1c-44 0-79.6 35.6-79.6 79.6v664c0 44 35.6 79.6 79.6 79.6zM501.3 417.8h-252c-18.3 0-33.2-14.9-33.2-33.2s14.9-33.2 33.2-33.2h252.1c18.3 0 33.2 14.9 33.2 33.2s-14.9 33.2-33.3 33.2zM395.2 245.3H249.3c-18.3 0-33.2-14.9-33.2-33.2 0-18.3 14.9-33.2 33.2-33.2h145.9c18.3 0 33.2 14.9 33.2 33.2 0 18.3-14.9 33.2-33.2 33.2zM634 590.2H249.3c-18.3 0-33.2-14.9-33.2-33.2s14.9-33.2 33.2-33.2H634c18.3 0 33.2 14.9 33.2 33.2s-14.9 33.2-33.2 33.2zM957 420.3c-1.2 6.1-3 12.2-5.4 17.7l-0.1 0.3-0.2 0.3c-5.8 12.7-13.7 24.8-23.7 35.9-10.4 11.6-20.5 19.9-30.6 25.4-5.3 2.8-10.7 5-16.9 6.9-7.3 2.2-14.5 3.4-22 3.8-1.3 0-2.1 0.1-3 0.1-7.7 0-15.4-1.2-23.1-3.6-8.9-2.8-17.6-7.4-25.6-13.9l-0.5-0.4-0.5-0.4c-3.9-3.3-8.5-7.5-13.5-12.4-4.5-4.5-8.4-8.1-11.6-11.2l-3.3-3.2-0.1 0.1-2.4-2.5-25.7-24.5 1-1-2.1-2.2-90.1-93.2-34-35.1-30.6-31.6c-9.4-9.7-17.2-17.8-23.5-24.5l-10.1-10.6-1.4-1.5c-5.8-6-10.6-11.9-14.2-17.7-3-4.7-5.8-10.1-8.3-15.8-2.4-4.8-4.6-10.7-7.4-19.3-2.4-7.3-4.8-15.3-7.3-24.1-2.4-8.3-4.7-16.4-6.8-24.2-2.8-10.2-4.3-17.4-5.2-23.4-2.9-19.2 0.7-35.7 10.8-48.6 6-7.6 19.1-19.7 42.7-19.7 2.9 0 6 0.2 9.2 0.5l0.8 0.1 0.8 0.1c5 0.8 11.4 2.3 20.7 4.8 7.9 2.1 16.3 4.7 25.7 7.8 8.8 3 17.2 6 25.3 9 8.7 3.4 15.3 6.2 20.4 8.7 6.7 3.1 13.1 7.1 19.1 11.9 4 3.1 7.7 6.3 11 9.3 2.8 2.4 6.2 5.8 12.9 12.7 6.1 6.3 13.5 14.1 22.5 23.5 8.1 8.6 17.5 18.2 29.7 30.5l0.3 0.3 0.2 0.3 33.5 35.1 90 93 29.1 30.1-0.1 0.1 0.3 0.3c2.6 2.3 5.4 5 8.3 8 1.8 1.8 3.9 4 6.3 6.3 2.9 2.9 6.1 6.1 9.7 9.8l0.6 0.6 0.6 0.6c6.6 7.4 11.6 15.7 14.9 24.5 3.2 8.5 4.8 17.5 4.8 26.5 0.1 6.7-0.6 13.3-1.9 19.7zM765.2 230.7l-33.5-35.1c-11.1-11.3-21.2-21.6-30.2-31-8.9-9.4-16.3-17.1-22.2-23.2-5.9-6.1-9.4-9.5-10.5-10.4-2.8-2.6-6-5.4-9.6-8.2-3.6-2.9-7.4-5.2-11.3-7-3.9-2-9.6-4.4-17.2-7.4-7.6-2.9-15.4-5.7-23.7-8.4-8.2-2.7-16.1-5.1-23.5-7.1-7.4-2-12.9-3.3-16.6-3.9-1.6-0.2-3.2-0.3-4.5-0.3-5 0-8.6 1.2-10.5 3.7-2.5 3.2-3.2 8.5-2.1 16 0.6 4.1 1.9 9.9 4 17.6 2.1 7.7 4.3 15.6 6.7 23.8 2.4 8.3 4.7 15.9 6.9 22.8s4.1 11.7 5.5 14.3c1.7 4 3.6 7.7 5.7 11s5.1 7 9 11c1.7 1.8 5.6 5.9 11.8 12.4 6.1 6.5 13.8 14.5 23.1 24.1l30.6 31.6 34 35.1 90.1 93.2 78.4-81.5-90.4-93.1z m150.5 158.6c-1.4-3.8-3.6-7.4-6.7-10.8-3.3-3.5-6.4-6.5-9-9.1l-6.9-6.9c-2.2-2.3-4.3-4.3-6.3-6.1l-78.4 81c3.4 3.2 7.4 7 11.9 11.5 4.6 4.5 8.5 8 11.5 10.6 3.9 3.1 8 5.4 12.1 6.7 3.8 1.2 7.5 1.8 11.2 1.8h1.2c4-0.2 8-0.8 11.7-1.9 3.8-1.2 7.1-2.5 9.8-3.9 5.9-3.2 12.4-8.7 19.5-16.6 7.1-7.9 12.6-16.3 16.6-24.9 1.1-2.6 2-5.6 2.7-9.1 0.7-3.5 1.1-7.1 1.1-10.8 0.1-3.9-0.6-7.7-2-11.5z"  horiz-adv-x="1024" />

    
    <glyph glyph-name="youlianguanli" unicode="&#58979;" d="M805.96 665.38c-23.22 34.33-58.42 57.57-99.12 65.42-9.67 1.86-19.55 2.81-29.39 2.81-31.12 0-61.18-9.22-86.95-26.65L388.51 570.18c-34.32-23.23-57.54-58.44-65.37-99.14-7.84-40.69 0.65-82.01 23.89-116.32 28.57-42.24 76.2-67.46 127.41-67.46 26 0 51.87 6.61 74.8 19.12l4.96 2.71-0.11 0.24c14.57 9.4 19.17 28.97 10.22 43.89-5.82 9.7-16.48 15.73-27.8 15.73-3.7 0-7.37-0.64-10.84-1.88l-0.69 1.18-5.19-3.12c-15.56-9.36-32.81-14.3-49.91-14.3-28.2 0-53.51 13.51-69.46 37.08-13.72 20.24-18.73 44.62-14.11 68.63 4.62 24.01 18.32 44.78 38.58 58.48l197.89 133.92c15.21 10.31 32.96 15.76 51.33 15.76 5.79 0 11.61-0.56 17.3-1.65 24.01-4.62 44.78-18.32 58.48-38.58 13.74-20.31 19.09-43.32 15.07-64.78-4.09-21.82-17.08-40.68-37.65-54.59l-30.15-20.99c-9.79-6.58-15.37-17.97-14.55-29.75 0.82-11.79 7.94-22.32 18.58-27.47 4.46-2.16 9.45-3.3 14.4-3.3 6.65 0 13.08 1.98 18.58 5.71 0.51 0.33 0.91 0.69 1.21 1l29.07 19.64c34.33 23.23 57.55 58.44 65.39 99.14 7.83 40.66-0.65 81.98-23.88 116.3zM608.5 472.36c-21.31 10.7-45.26 16.35-69.28 16.35-27.35 0-54.38-7.26-78.18-21.01l-19.34-11.2h6.34c-7.24-10.41-8-24.65-0.84-35.93 5.97-9.41 16.2-15.02 27.36-15.02 4.15 0 8.24 0.8 12.06 2.34l0.8-1 4.55 2.9c15.99 10.19 33.86 15.57 51.68 15.57 27.3 0 52.17-12.91 68.22-35.43 14.21-19.9 19.81-44.14 15.78-68.26-4.04-24.12-17.22-45.22-37.14-59.41l-194.6-138.82c-15.61-11.12-33.96-17-53.05-17-29.56 0-57.45 14.34-74.6 38.35-14.34 20.11-20.23 43.14-16.58 64.84 3.65 21.73 16.17 40.75 36.2 54.99l29.61 21.81a33.053 33.053 0 0 1 14.31 30.21 33.075 33.075 0 0 1-19.47 27.3c-4.26 1.9-8.79 2.86-13.45 2.86-7.07 0-14.07-2.32-19.74-6.54-0.45-0.32-0.8-0.65-1.07-0.93l-28.66-20.4c-33.64-24.1-55.9-59.85-62.69-100.67-6.79-40.82 2.71-81.85 26.74-115.54 29.06-40.74 76.33-65.07 126.44-65.07 32.28 0 63.3 9.91 89.71 28.67l198.57 141.65c33.74 24.07 56.08 59.84 62.91 100.71 6.83 40.88-2.66 81.96-26.73 115.69-14.47 20.32-33.79 36.91-55.86 47.99z"  horiz-adv-x="1024" />

    
    <glyph glyph-name="xuexi" unicode="&#58906;" d="M909.824 502.784v-138.752l33.28-38.4-64.512-55.808-58.88 55.808 35.328 39.424V479.744c-189.952-77.312-241.152-101.376-283.648-120.32-41.984-18.944-72.704-18.944-114.176-3.072-41.984 15.36-231.424 87.552-329.728 134.144-66.048 31.232-70.144 51.2 1.024 77.312 93.184 34.816 237.056 91.136 318.976 121.344 48.128 19.456 73.728 29.696 118.272 7.68 78.848-32.256 250.368-99.328 339.968-136.192 78.336-33.28 25.6-44.544 4.096-57.856z m-328.704-201.216c46.08 18.944 108.032 49.664 175.616 78.336v-229.888s-87.552-92.16-240.64-92.16c-165.376 0-254.464 92.16-254.464 92.16v214.528c52.224-20.992 110.592-38.912 181.248-62.976 43.008-15.36 98.816-20.48 138.24 0z"  horiz-adv-x="1024" />

    
    <glyph glyph-name="gongju" unicode="&#58915;" d="M981.333333 814.933333c-55.466667 57.6-147.2 57.6-204.8 0L416 450.133333l204.8-206.933333L981.333333 608c57.6 57.6 57.6 149.333333 0 206.933333zM864 768c21.333333 21.333333 53.333333 21.333333 74.666667 0s21.333333-53.333333 0-74.666667-53.333333-21.333333-74.666667 0c-19.2 19.2-19.2 53.333333 0 74.666667zM228.266667 864c-19.2 0-38.4-2.133333-57.6-6.4l6.4-6.4L258.133333 768c42.666667-42.666667 42.666667-110.933333 0-153.6s-108.8-42.666667-151.466666 0l-81.066667 85.333333C21.333333 704 17.066667 708.266667 14.933333 712.533333 4.266667 689.066667 0 661.333333 0 633.6c0-128 102.4-230.4 228.266667-230.4 125.866667 0 228.266667 102.4 228.266666 230.4 0 128-102.4 230.4-228.266666 230.4zM923.733333-46.933333c49.066667 49.066667 49.066667 130.133333 0 181.333333l-181.333333 183.466667-179.2-181.333334 181.333333-183.466666c49.066667-49.066667 130.133333-49.066667 179.2 0z m-121.6 123.733333c21.333333 21.333333 53.333333 21.333333 74.666667 0s21.333333-53.333333 0-74.666667-53.333333-21.333333-74.666667 0c-19.2 21.333333-19.2 53.333333 0 74.666667zM448 362.666667l76.8-76.8-168.533333-172.8 14.933333-14.933334-25.6-49.066666-213.333333-136.533334S106.666667-106.666667 83.2-85.333333c-23.466667 23.466667-4.266667 51.2-4.266667 51.2L213.333333 185.6l46.933334 23.466667 17.066666-17.066667 170.666667 170.666667z"  horiz-adv-x="1024" />

    
    <glyph glyph-name="-jichushezhi" unicode="&#58882;" d="M839.1168 597.7088h-115.5584v43.9808a92.16 92.16 0 0 1-92.16 92.16H396.544a92.16 92.16 0 0 1-92.16-92.16v-43.9808H188.8768a92.16 92.16 0 0 1-92.16-92.16v-444.6208a92.16 92.16 0 0 1 92.16-92.16h650.24a92.16 92.16 0 0 1 92.16 92.16V505.5488a92.16 92.16 0 0 1-92.16 92.16z m-473.2928 43.9808a30.72 30.72 0 0 0 30.72 30.72h234.8544a30.72 30.72 0 0 0 30.72-30.72v-43.9808H365.824zM188.8768 536.2688h650.24a30.72 30.72 0 0 0 30.72-30.72v-76.1344h-711.68V505.5488a30.72 30.72 0 0 0 30.72 30.72z m385.6896-168.2944a67.84 67.84 0 0 0-121.1392 0z m264.5504-337.92h-650.24a30.72 30.72 0 0 0-30.72 30.72v307.2h230.0928a129.4336 129.4336 0 0 1 251.4432 0h230.144v-307.2a30.72 30.72 0 0 0-30.72-30.5664z"  horiz-adv-x="1024" />

    
    <glyph glyph-name="yinyueclick" unicode="&#58883;" d="M179.2-128C81.454545-128 0-48.872727000000054 0 51.200000000000045s79.127273 179.2 179.2 179.2c39.563636 0 76.8-13.963636 109.381818-37.236364l9.309091-6.981818V761.018182c0 34.909091 27.927273 62.836364 60.509091 62.836363l598.109091 69.818182h4.654545C993.745455 896 1024 868.072727 1024 833.163636v-672.581818c0-48.872727-18.618182-93.090909-53.527273-125.672727-32.581818-32.581818-79.127273-51.2-125.672727-51.2-97.745455 0-179.2 79.127273-179.2 179.2 0 97.745455 79.127273 179.2 179.2 179.2 39.563636 0 79.127273-13.963636 109.381818-37.236364l9.309091-6.981818V609.745455l-605.090909-65.163637v-493.381818c-2.327273-100.072727-81.454545-179.2-179.2-179.2z m0 295.563636c-65.163636 0-118.690909-53.527273-118.690909-118.690909s53.527273-118.690909 118.690909-118.690909 118.690909 53.527273 118.690909 118.690909c-2.327273 67.490909-53.527273 118.690909-118.690909 118.690909z m665.6 111.709091c-65.163636 0-118.690909-53.527273-118.690909-118.690909s53.527273-118.690909 118.690909-118.690909 118.690909 53.527273 118.690909 118.690909-53.527273 118.690909-118.690909 118.690909z m-488.727273 325.818182l605.090909 65.163636V835.490909l-598.109091-69.818182h-6.981818v-160.581818z"  horiz-adv-x="1024" />

    
    <glyph glyph-name="shuji" unicode="&#59097;" d="M920.576 92.16L920.576 792.576c0 32.256-26.112 58.368-58.368 58.368L161.792 850.944c-32.256 0-58.368-26.112-58.368-58.368l0-787.968c0-48.128 39.424-87.552 87.552-87.552L906.24-82.944c8.192 0 14.848 6.656 14.848 14.848 0 8.192-6.656 14.848-14.848 14.848l-14.848 0 0 116.736C907.776 62.976 920.576 76.288 920.576 92.16zM146.432 779.264c0 15.872 13.312 29.184 29.184 29.184L220.16 808.448l0-702.464-29.184 0c-22.528 0-27.648 0-45.056-12.288L145.92 779.264zM848.896-40.448L190.976-40.448c-32.256 0-48.128 19.456-48.128 51.712 0 32.256 15.872 51.712 48.128 51.712l657.92 0L848.896-40.448zM263.168 105.472L263.168 808.448l585.728 0c15.872 0 29.184-13.312 29.184-29.184l0-673.28L263.168 105.984zM650.24 479.232L373.248 479.232c-8.192 0-14.848-7.168-14.848-16.384 0-9.216 6.656-16.384 14.848-16.384L650.24 446.464c8.192 0 14.848 7.168 14.848 16.384C665.088 472.064 658.432 479.232 650.24 479.232zM752.64 566.784L373.248 566.784c-8.192 0-14.848-7.168-14.848-16.384s6.656-16.384 14.848-16.384L752.64 534.016c8.192 0 14.848 7.168 14.848 16.384S760.832 566.784 752.64 566.784zM373.248 622.08l175.104 0c8.192 0 14.848 7.168 14.848 15.872s-6.656 15.872-14.848 15.872L373.248 653.824c-8.192 0-14.848-7.168-14.848-15.872S365.056 622.08 373.248 622.08z"  horiz-adv-x="1028" />

    
    <glyph glyph-name="diannao" unicode="&#58901;" d="M935.001 806.055H89c-38.103 0-60.463-21.729-60.463-60.463v-574.078c0-38.735 22.357-60.463 60.463-60.463h362.617v-90.694H270.23c-19.052 0-30.231-10.864-30.231-30.231v-30.231h543.846v30.389c0 19.366-11.18 30.231-30.231 30.231h-181.23v90.694h362.617c38.103 0 60.463 21.729 60.463 60.463v573.92c0 38.735-22.357 60.463-60.463 60.463zM477.438 191.197c0 19.366 15.431 34.955 34.482 34.955s34.482-15.746 34.482-34.955c0-19.366-15.431-35.111-34.482-35.111-19.052 0.158-34.482 15.746-34.482 35.111zM88.999 262.209V745.594H935v-483.385H88.999z m0 0z"  horiz-adv-x="1024" />

    
    <glyph glyph-name="search-copy" unicode="&#58881;" d="M222.6944 673.2032A323.1488 323.1488 0 0 1 133.6832 384c19.2512 87.3728 64.512 172.7488 135.0144 243.3024C339.2512 697.8815999999999 424.6272 743.1168 512 762.3679999999999c-101.632 19.1488-210.688-10.5216-289.3056-89.1648zM989.44 73.88160000000005l-121.7024 121.7024a118.016 118.016 0 0 1-92.8 34.1248c114.4576 165.5552 97.92 394.3936-49.4848 541.824-165.9392 165.9904-435.0464 165.9904-601.0368 0-165.9392-165.9904-165.9392-435.1232 0-601.1136 147.4048-147.4304 376.064-163.84 541.7216-49.3824-2.56-33.28 8.8576-67.5328 34.1248-92.8l121.7024-121.728c46.08-45.9776 121.3696-45.9776 167.3472 0 46.208 45.9776 46.208 121.2928 0.128 167.3728zM676.096 219.904c-138.6752-138.6752-363.392-138.6752-502.016 0-138.6752 138.6752-138.6752 363.4432 0 502.1184 138.624 138.6752 363.3408 138.6752 502.016 0 138.6496-138.5728 138.6496-363.4432 0-502.1184z"  horiz-adv-x="1024" />

    
    <glyph glyph-name="shipin" unicode="&#58888;" d="M450.133 682.667L305.067 853.333H140.8l145.067-170.666z m426.667 0L731.733 853.333H567.467l145.066-170.666z m-213.333 0L518.4 853.333H354.133L499.2 682.667z m275.2 170.666H780.8l145.067-170.666h76.8V789.333c0 36.267-27.734 64-64 64z m-846.934 0h-6.4c-36.266 0-64-27.733-64-64v-106.666H236.8L91.733 853.333z m-70.4-874.666c0-36.267 27.734-64 64-64h853.334c36.266 0 64 27.733 64 64V640H21.333v-661.333zM362.667 448c0 36.267 29.866 53.333 64 53.333 10.666 0 23.466-2.133 34.133-8.533L704 352c42.667-23.467 42.667-83.2 0-106.667l-243.2-140.8c-10.667-6.4-21.333-8.533-34.133-8.533-34.134 0-64 17.067-64 53.333V448z"  horiz-adv-x="1024" />

    
    <glyph glyph-name="shoucang11" unicode="&#58880;" d="M292.717096-40.426653999999985c-16.663262 0-33.204894 6.689631-46.462526 16.663262-23.231263 19.947262-36.488894 53.152156-33.204893 83.073049l36.488894 195.945361-139.509205 132.819575c-23.231263 23.231263-26.515263 59.841786-23.231263 86.35705 9.973631 36.488894 36.488894 59.841786 66.409787 63.125787l192.661362 36.488894 86.357049 185.97173c19.947262 29.920893 46.462525 46.462525 79.667419 46.462526 33.204894 0 59.841786-16.663262 76.383418-46.462526l86.35705-185.97173L867.295549 540.84143c29.920893-6.689631 56.436156-29.920893 66.409788-59.841786 9.973631-29.920893 3.284-59.841786-16.663262-86.35705L774.248869 255.25501799999995l33.204894-195.945361c3.284-33.204894-6.689631-63.125787-33.204894-83.073049-16.663262-9.973631-29.920893-16.663262-49.868155-16.663262-16.663262 0-33.204894 6.689631-36.488894 9.973631l-175.9981 93.04668-179.40373-89.64105c-13.257632-9.973631-26.515263-13.379261-39.772894-13.379261zM511.89372 756.734054c-13.257632 0-23.231263-6.689631-29.920893-19.947262l-99.614681-205.918993-219.176625-43.178525c-19.947262-3.284-23.231263-16.663262-26.515263-26.515263 0-9.973631 0-29.920893 9.973631-39.894524l159.334838-152.766837-43.178525-215.892624c-3.284-13.257632 3.284-26.515263 13.257632-36.488894 9.973631-6.689631 23.231263-6.689631 33.204894 0l199.229362 103.020311 199.229362-103.020311c3.284-3.284 9.973631-3.284 16.663262-3.284001s13.257632 0 19.947262 6.689631c9.973631 6.689631 13.257632 23.231263 13.257631 36.488894l-39.894524 222.582255 159.456468 156.050837c6.689631 9.973631 9.973631 23.231263 6.68963 39.894524-3.284 13.257632-16.663262 23.231263-26.515263 26.515263L638.145294 540.84143l-99.614681 205.918993c-3.40563 3.284-13.379261 9.973631-26.636893 9.973631z"  horiz-adv-x="1024" />

    


  </font>
</defs>
</svg>
